<svg width="187" height="78" viewBox="0 0 187 78" fill="none" xmlns="http://www.w3.org/2000/svg">
<g clip-path="url(#clip0_4035_11398)">
<g filter="url(#filter0_d_4035_11398)">
<rect x="20" y="9" width="147" height="60" rx="30" fill="white"/>
</g>
<path d="M48.37 46H44.92V34.477H48.117V37.973H48.301C48.577 36.041 49.727 34.247 52.625 34.247C55.293 34.247 56.65 35.88 56.903 38.019H57.11C57.386 36.064 58.559 34.247 61.526 34.247C64.493 34.247 65.942 36.202 65.942 38.824V46H62.492V39.974C62.492 38.065 61.825 37.352 59.847 37.352C57.754 37.352 57.156 38.18 57.156 40.181V46H53.706V39.974C53.706 38.065 53.039 37.352 51.061 37.352C48.968 37.352 48.37 38.18 48.37 40.181V46ZM73.8134 46.23C69.9724 46.23 67.3504 44.344 67.3504 40.25C67.3504 36.57 69.9494 34.247 73.7444 34.247C77.5164 34.247 80.0234 36.225 80.0234 39.836C80.0234 40.25 79.9774 40.549 79.9314 40.94H70.5474C70.6394 42.711 71.4674 43.47 73.6984 43.47C75.7454 43.47 76.4584 42.941 76.4584 41.952V41.722H79.9084V41.975C79.9084 44.482 77.4704 46.23 73.8134 46.23ZM73.6754 36.938C71.6284 36.938 70.7544 37.628 70.5934 39.123H76.7114C76.6194 37.605 75.6994 36.938 73.6754 36.938Z" fill="#B880E5"/>
<path d="M89.3754 46.23C84.2924 46.23 81.1414 43.102 81.1414 38.295C81.1414 33.488 84.2924 30.36 89.3754 30.36C94.1594 30.36 97.2414 32.752 97.2414 36.662V37.007H93.4004V36.662C93.4004 34.638 92.2504 33.672 89.4444 33.672C86.0634 33.672 84.7984 34.868 84.7984 38.295C84.7984 41.722 86.0634 42.918 89.4444 42.918C92.2504 42.918 93.4004 41.952 93.4004 39.928V39.583H97.2414V39.928C97.2414 43.838 94.1824 46.23 89.3754 46.23ZM102.278 46.23C99.7944 46.23 98.2994 45.08 98.2994 43.148C98.2994 41.446 99.5644 40.388 102.025 40.135L106.97 39.629V39.192C106.97 37.697 106.303 37.283 104.463 37.283C102.715 37.283 102.002 37.743 102.002 39.054V39.146H98.5294V39.077C98.5294 36.225 100.921 34.247 104.716 34.247C108.557 34.247 110.374 36.225 110.374 39.238V46H107.154V43.355H106.97C106.441 45.149 104.831 46.23 102.278 46.23ZM101.772 42.918C101.772 43.539 102.255 43.792 103.267 43.792C105.613 43.792 106.878 43.24 106.97 41.607L102.968 42.067C102.14 42.136 101.772 42.366 101.772 42.918ZM117.942 46.23C114.055 46.23 111.916 44.712 111.916 42.044V41.975H115.366V42.182C115.366 43.217 116.01 43.493 117.965 43.493C119.805 43.493 120.242 43.194 120.242 42.504C120.242 41.86 119.897 41.676 118.54 41.492L115.297 41.101C112.997 40.848 111.709 39.813 111.709 37.881C111.709 35.857 113.434 34.247 117.39 34.247C121.162 34.247 123.301 35.673 123.301 38.479V38.548H119.851V38.41C119.851 37.467 119.391 36.984 117.275 36.984C115.55 36.984 115.113 37.283 115.113 38.019C115.113 38.617 115.435 38.87 116.953 39.054L119.414 39.353C122.496 39.698 123.646 40.733 123.646 42.642C123.646 44.804 121.507 46.23 117.942 46.23ZM128.488 46H125.038V30.59H128.488V37.996H128.672C129.04 36.041 130.397 34.247 133.341 34.247C136.446 34.247 137.964 36.271 137.964 38.939V46H134.514V39.974C134.514 38.042 133.686 37.352 131.524 37.352C129.201 37.352 128.488 38.295 128.488 40.227V46Z" fill="#131313"/>
</g>
<defs>
<filter id="filter0_d_4035_11398" x="7.5" y="-3.5" width="176" height="89" filterUnits="userSpaceOnUse" color-interpolation-filters="sRGB">
<feFlood flood-opacity="0" result="BackgroundImageFix"/>
<feColorMatrix in="SourceAlpha" type="matrix" values="0 0 0 0 0 0 0 0 0 0 0 0 0 0 0 0 0 0 127 0" result="hardAlpha"/>
<feOffset dx="2" dy="2"/>
<feGaussianBlur stdDeviation="7.25"/>
<feComposite in2="hardAlpha" operator="out"/>
<feColorMatrix type="matrix" values="0 0 0 0 0 0 0 0 0 0 0 0 0 0 0 0 0 0 0.08 0"/>
<feBlend mode="normal" in2="BackgroundImageFix" result="effect1_dropShadow_4035_11398"/>
<feBlend mode="normal" in="SourceGraphic" in2="effect1_dropShadow_4035_11398" result="shape"/>
</filter>
<clipPath id="clip0_4035_11398">
<rect width="187" height="78" fill="white"/>
</clipPath>
</defs>
</svg>
